<svg width="193" height="39" viewBox="0 0 193 39" fill="none" xmlns="http://www.w3.org/2000/svg">
        <g clipPath="url(#clip0_82_848)">
            <path d="M34.5418 9.74792L17.5188 0L0.5 9.74792V29.2479L17.5188 39L34.5418 29.2479V9.74792Z" fill="white"/>
            <path d="M9.98863 26.1136C10.6841 26.8036 11.8154 26.8036 12.5109 26.1136C13.2064 25.4235 13.2064 24.3012 12.5109 23.6111L7.11027 18.2529C6.41477 17.5628 5.28353 17.5628 4.58803 18.2529C3.89253 18.9429 3.89253 20.0653 4.58803 20.7553L7.78482 23.9187L9.99282 26.1177L9.98863 26.1136Z" fill="black"/>
            <path d="M12.5113 12.8867C11.8158 12.1966 10.6846 12.1966 9.98909 12.8867L4.58849 18.2449C3.90556 18.9225 3.86366 19.9825 4.51727 20.6767L4.54659 20.7058L4.5843 20.7432C4.5843 20.7432 4.58849 20.7474 4.59268 20.7515C4.59268 20.7515 4.59687 20.7557 4.60106 20.7598L7.78947 23.9191C6.07167 22.2148 8.37604 19.5045 8.37604 19.5045L12.5197 15.3933C13.2152 14.7032 13.2152 13.5809 12.5197 12.8908L12.5113 12.8867Z" fill="black"/>
            <path d="M25.0517 12.8867C24.3562 12.1966 23.2249 12.1966 22.5294 12.8867C21.8339 13.5767 21.8339 14.6991 22.5294 15.3891L27.93 20.7474C28.6255 21.4374 29.7568 21.4374 30.4523 20.7474C31.1478 20.0573 31.1478 18.935 30.4523 18.2449L27.2555 15.0815L25.0475 12.8825L25.0517 12.8867Z" fill="black"/>
            <path d="M22.53 26.1139C23.2255 26.804 24.3567 26.804 25.0522 26.1139L30.4528 20.7557C31.1358 20.0781 31.1777 19.0181 30.5241 18.3239L30.4947 18.2948L30.457 18.2574C30.457 18.2574 30.4528 18.2533 30.4487 18.2491C30.4487 18.2491 30.4445 18.2449 30.4403 18.2408L27.2519 15.0815C28.9697 16.7859 26.6653 19.4962 26.6653 19.4962L22.5216 23.6073C21.8261 24.2974 21.8261 25.4197 22.5216 26.1098L22.53 26.1139Z" fill="black"/>
            <path d="M16.7853 26.8329C16.559 27.5437 15.7169 27.9179 14.904 27.6643C14.0912 27.4107 13.6136 26.6292 13.8357 25.9184L18.2559 12.1715C18.4821 11.4607 19.3242 11.0866 20.1371 11.3402C20.9499 11.5937 21.4275 12.3752 21.2054 13.0902L16.7853 26.8371V26.8329Z" fill="black"/>
            <path d="M44.9615 11.9052C43.9224 12.3043 43.0174 12.8904 42.2465 13.6636C41.4756 14.4368 40.8681 15.3804 40.424 16.4944C39.9799 17.6085 39.7578 18.8888 39.7578 20.3354C39.7578 21.782 39.9505 23.0623 40.336 24.1764C40.7215 25.2904 41.2745 26.2341 41.9951 27.0072C42.7158 27.7804 43.5956 28.3665 44.6347 28.7656C45.6738 29.1647 46.8469 29.3642 48.1541 29.3642C48.8245 29.3642 49.4529 29.3268 50.0395 29.252C50.6261 29.1771 51.154 28.9527 51.6232 28.9527C52.0925 28.828 52.4989 28.6991 52.8424 28.5661C53.186 28.4331 53.4583 28.3 53.6594 28.167L52.8047 25.5981C52.4193 25.7976 51.8746 26.0096 51.1707 26.2341C50.4668 26.4585 49.5535 26.5708 48.4306 26.5708C47.4921 26.5708 46.6877 26.417 46.0173 26.1093C45.347 25.8017 44.7939 25.3694 44.3582 24.8124C43.9224 24.2554 43.5998 23.5944 43.3903 22.8296C43.1808 22.0647 43.0761 21.225 43.0761 20.3105C43.0761 19.2796 43.2102 18.3734 43.4783 17.5919C43.7465 16.8104 44.1194 16.1619 44.597 15.6464C45.0746 15.131 45.6402 14.7444 46.2938 14.4867C46.9474 14.2289 47.6513 14.1001 48.4055 14.1001C49.2769 14.1001 50.0856 14.2123 50.8314 14.4368C51.5771 14.6613 52.1511 14.8982 52.5533 15.1476L53.4835 12.5787C53.3662 12.5121 53.165 12.4041 52.8801 12.2544C52.5952 12.1048 52.2349 11.9634 51.7992 11.8304C51.3635 11.6974 50.8523 11.5768 50.2657 11.4688C49.6792 11.3607 49.0256 11.3066 48.3049 11.3066C47.115 11.3066 46.0006 11.5062 44.9615 11.9052Z" fill="black"/>
            <path d="M59.2035 25.5732C58.642 24.8083 58.3613 23.7691 58.3613 22.4555C58.3613 21.1419 58.642 20.1318 59.2035 19.3753C59.7649 18.6187 60.5484 18.2404 61.5539 18.2404C62.5595 18.2404 63.3429 18.6187 63.9044 19.3753C64.4658 20.1318 64.7465 21.1586 64.7465 22.4555C64.7465 23.7525 64.4658 24.8083 63.9044 25.5732C63.3429 26.3381 62.5595 26.7205 61.5539 26.7205C60.5484 26.7205 59.7649 26.3381 59.2035 25.5732ZM59.0149 16.1079C58.244 16.4322 57.5778 16.8936 57.0164 17.4922C56.455 18.0908 56.0192 18.8099 55.7092 19.6496C55.3992 20.4893 55.2441 21.4246 55.2441 22.4555C55.2441 23.4864 55.3992 24.4259 55.7092 25.2739C56.0192 26.1219 56.4508 26.8452 57.0038 27.4438C57.5569 28.0424 58.2189 28.508 58.9898 28.8405C59.7607 29.1731 60.6154 29.3393 61.5539 29.3393C62.4924 29.3393 63.3513 29.1731 64.1306 28.8405C64.9099 28.508 65.5761 28.0424 66.1291 27.4438C66.6822 26.8452 67.1095 26.1219 67.4112 25.2739C67.7129 24.4259 67.8637 23.4864 67.8637 22.4555C67.8637 21.4246 67.7087 20.4893 67.3986 19.6496C67.0886 18.8099 66.657 18.0908 66.104 17.4922C65.551 16.8936 64.8848 16.4322 64.1055 16.1079C63.3262 15.7837 62.4757 15.6216 61.5539 15.6216C60.6322 15.6216 59.7858 15.7837 59.0149 16.1079Z" fill="black"/>
            <path d="M74.3478 25.5608C73.711 24.8043 73.3926 23.7609 73.3926 22.4307C73.3926 21.1005 73.6482 20.1361 74.1593 19.3878C74.6705 18.6396 75.4791 18.2655 76.5852 18.2655C77.0879 18.2655 77.5614 18.3444 78.0055 18.5024C78.4496 18.6604 78.8057 18.8308 79.0739 19.0137V26.4961C78.856 26.546 78.5753 26.5917 78.2317 26.6333C77.8882 26.6749 77.4734 26.6956 76.9874 26.6956C75.8645 26.6956 74.9847 26.3174 74.3478 25.5608ZM82.1157 9.63574L79.0739 10.1346V16.3949C78.7219 16.212 78.303 16.0457 77.817 15.896C77.3309 15.7464 76.7695 15.6716 76.1327 15.6716C75.1942 15.6716 74.3646 15.8337 73.644 16.1579C72.9233 16.4821 72.3116 16.9436 71.8088 17.5422C71.3061 18.1408 70.9248 18.8599 70.665 19.6996C70.4053 20.5393 70.2754 21.4746 70.2754 22.5055C70.2754 23.5364 70.4304 24.4966 70.7405 25.3363C71.0505 26.176 71.4946 26.891 72.0728 27.4813C72.651 28.0716 73.3507 28.5247 74.1719 28.8406C74.9931 29.1565 75.9232 29.3145 76.9623 29.3145C78.0013 29.3145 78.9272 29.2397 79.8406 29.09C80.754 28.9404 81.5123 28.7741 82.1157 28.5912V9.63574Z" fill="black"/>
            <path d="M88.7018 20.0611C88.8359 19.6953 89.0244 19.3711 89.2674 19.0884C89.5104 18.8058 89.8079 18.5771 90.1598 18.4025C90.5118 18.228 90.9224 18.1407 91.3916 18.1407C91.8609 18.1407 92.2338 18.2196 92.5606 18.3776C92.8874 18.5356 93.1639 18.7517 93.3901 19.0261C93.6164 19.3004 93.7882 19.6247 93.9055 19.9988C94.0228 20.3729 94.0814 20.7678 94.0814 21.1835H88.4253C88.4755 20.8011 88.5677 20.427 88.7018 20.0611ZM89.104 16.0581C88.3666 16.349 87.713 16.7814 87.1432 17.355C86.5734 17.9287 86.1167 18.6478 85.7732 19.5124C85.4296 20.3771 85.2578 21.383 85.2578 22.5303C85.2578 23.5114 85.3919 24.4134 85.66 25.2365C85.9282 26.0595 86.3388 26.7745 86.8918 27.3814C87.4449 27.9883 88.1487 28.4622 89.0035 28.8031C89.8582 29.144 90.8637 29.3144 92.0201 29.3144C92.4726 29.3144 92.9167 29.2895 93.3524 29.2396C93.7882 29.1897 94.1946 29.1273 94.5717 29.0525C94.9487 28.9777 95.2839 28.8946 95.5772 28.8031C95.8705 28.7116 96.1009 28.6244 96.2685 28.5412L95.8663 26.072C95.5143 26.2217 95.0325 26.363 94.4208 26.496C93.8091 26.629 93.1346 26.6956 92.3972 26.6956C91.1402 26.6956 90.1808 26.4087 89.5188 25.8351C88.8568 25.2614 88.4839 24.4508 88.4001 23.4033H97.0729C97.0897 23.237 97.1023 23.05 97.1106 22.8421C97.119 22.6343 97.1232 22.4472 97.1232 22.2809C97.1232 20.0695 96.6163 18.4067 95.6023 17.2927C94.5884 16.1786 93.1765 15.6216 91.3665 15.6216C90.5956 15.6216 89.8414 15.7671 89.104 16.0581Z" fill="black"/>
            <path d="M104.226 26.6333C103.882 26.5917 103.601 26.546 103.384 26.4961V18.9888C103.652 18.8059 104.008 18.6396 104.452 18.4899C104.896 18.3403 105.37 18.2655 105.872 18.2655C106.978 18.2655 107.787 18.6396 108.298 19.3878C108.809 20.1361 109.065 21.1503 109.065 22.4307C109.065 23.711 108.746 24.8043 108.11 25.5608C107.473 26.3174 106.593 26.6956 105.47 26.6956C104.984 26.6956 104.569 26.6749 104.226 26.6333ZM103.384 9.63574L100.342 10.1346V28.5912C100.945 28.7741 101.703 28.9404 102.617 29.09C103.53 29.2397 104.49 29.3145 105.495 29.3145C106.501 29.3145 107.464 29.1565 108.286 28.8406C109.107 28.5247 109.806 28.0674 110.385 27.4688C110.963 26.8702 111.407 26.1511 111.717 25.3114C112.027 24.4717 112.182 23.5281 112.182 22.4806C112.182 21.433 112.052 20.5393 111.792 19.6996C111.533 18.8599 111.16 18.1408 110.674 17.5422C110.188 16.9436 109.58 16.4821 108.851 16.1579C108.122 15.8337 107.297 15.6716 106.375 15.6716C105.755 15.6716 105.189 15.764 104.678 15.896C104.167 16.0457 103.736 16.212 103.384 16.3949V9.63574Z" fill="black"/>
            <path d="M118.04 20.0611C118.174 19.6953 118.362 19.3711 118.605 19.0884C118.848 18.8058 119.146 18.5771 119.498 18.4025C119.85 18.228 120.26 18.1407 120.73 18.1407C121.199 18.1407 121.572 18.2196 121.898 18.3776C122.225 18.5356 122.502 18.7517 122.728 19.0261C122.954 19.3004 123.126 19.6247 123.243 19.9988C123.361 20.3729 123.419 20.7678 123.419 21.1835H117.763C117.813 20.8011 117.906 20.427 118.04 20.0611ZM118.442 16.0581C117.705 16.349 117.051 16.7814 116.481 17.355C115.911 17.9287 115.455 18.6478 115.111 19.5124C114.767 20.3771 114.596 21.383 114.596 22.5303C114.596 23.5114 114.73 24.4134 114.998 25.2365C115.266 26.0595 115.677 26.7745 116.23 27.3814C116.783 27.9883 117.487 28.4622 118.341 28.8031C119.196 29.144 120.202 29.3144 121.358 29.3144C121.81 29.3144 122.255 29.2895 122.69 29.2396C123.126 29.1897 123.532 29.1273 123.91 29.0525C124.287 28.9777 124.622 28.8946 124.915 28.8031C125.208 28.7116 125.439 28.6244 125.606 28.5412L125.204 26.072C124.852 26.2217 124.37 26.363 123.759 26.496C123.147 26.629 122.472 26.6956 121.735 26.6956C120.478 26.6956 119.519 26.4087 118.857 25.8351C118.195 25.2614 117.822 24.4508 117.738 23.4033H126.411C126.428 23.237 126.44 23.05 126.449 22.8421C126.457 22.6343 126.461 22.4472 126.461 22.2809C126.461 20.0695 125.954 18.4067 124.94 17.2927C123.926 16.1786 122.514 15.6216 120.704 15.6216C119.933 15.6216 119.179 15.7671 118.442 16.0581Z" fill="black"/>
            <path d="M131.965 15.8959C131.027 16.0455 130.264 16.2035 129.678 16.3697V28.9901H132.719V18.4648C132.921 18.4316 133.231 18.39 133.65 18.3401C134.069 18.2902 134.471 18.2653 134.856 18.2653C135.376 18.2653 135.816 18.336 136.176 18.4773C136.536 18.6186 136.821 18.8431 137.031 19.1507C137.24 19.4583 137.391 19.8574 137.483 20.3479C137.575 20.8384 137.622 21.4328 137.622 22.1312V28.9901H140.663V21.6573C140.663 20.7761 140.575 19.9655 140.399 19.2255C140.223 18.4856 139.922 17.8538 139.494 17.33C139.067 16.8062 138.493 16.3988 137.772 16.1079C137.052 15.8169 136.155 15.6714 135.083 15.6714C133.943 15.6714 132.904 15.7462 131.965 15.8959Z" fill="black"/>
            <path d="M147.723 25.5608C147.086 24.8043 146.768 23.7609 146.768 22.4307C146.768 21.1005 147.023 20.1361 147.534 19.3878C148.045 18.6396 148.854 18.2655 149.96 18.2655C150.463 18.2655 150.936 18.3444 151.38 18.5024C151.825 18.6604 152.181 18.8308 152.449 19.0137V26.4961C152.231 26.546 151.95 26.5917 151.607 26.6333C151.263 26.6749 150.848 26.6956 150.362 26.6956C149.24 26.6956 148.36 26.3174 147.723 25.5608ZM155.491 9.63574L152.449 10.1346V16.3949C152.097 16.212 151.678 16.0457 151.192 15.896C150.706 15.7464 150.145 15.6716 149.508 15.6716C148.569 15.6716 147.74 15.8337 147.019 16.1579C146.298 16.4821 145.687 16.9436 145.184 17.5422C144.681 18.1408 144.3 18.8599 144.04 19.6996C143.78 20.5393 143.65 21.4746 143.65 22.5055C143.65 23.5364 143.805 24.4966 144.115 25.3363C144.425 26.176 144.87 26.891 145.448 27.4813C146.026 28.0716 146.726 28.5247 147.547 28.8406C148.368 29.1565 149.298 29.3145 150.337 29.3145C151.376 29.3145 152.302 29.2397 153.216 29.09C154.129 28.9404 154.887 28.7741 155.491 28.5912V9.63574Z" fill="black"/>
            <path d="M162.079 20.0611C162.213 19.6953 162.401 19.3711 162.644 19.0884C162.887 18.8058 163.185 18.5771 163.537 18.4025C163.889 18.228 164.299 18.1407 164.769 18.1407C165.238 18.1407 165.611 18.2196 165.938 18.3776C166.264 18.5356 166.541 18.7517 166.767 19.0261C166.993 19.3004 167.165 19.6247 167.282 19.9988C167.4 20.3729 167.458 20.7678 167.458 21.1835H161.802C161.853 20.8011 161.945 20.427 162.079 20.0611ZM162.481 16.0581C161.744 16.349 161.09 16.7814 160.52 17.355C159.95 17.9287 159.494 18.6478 159.15 19.5124C158.807 20.3771 158.635 21.383 158.635 22.5303C158.635 23.5114 158.769 24.4134 159.037 25.2365C159.305 26.0595 159.716 26.7745 160.269 27.3814C160.822 27.9883 161.526 28.4622 162.38 28.8031C163.235 29.144 164.241 29.3144 165.397 29.3144C165.85 29.3144 166.294 29.2895 166.729 29.2396C167.165 29.1897 167.572 29.1273 167.949 29.0525C168.326 28.9777 168.661 28.8946 168.954 28.8031C169.247 28.7116 169.478 28.6244 169.645 28.5412L169.243 26.072C168.891 26.2217 168.409 26.363 167.798 26.496C167.186 26.629 166.512 26.6956 165.774 26.6956C164.517 26.6956 163.558 26.4087 162.896 25.8351C162.234 25.2614 161.861 24.4508 161.777 23.4033H170.45C170.467 23.237 170.479 23.05 170.488 22.8421C170.496 22.6343 170.5 22.4472 170.5 22.2809C170.5 20.0695 169.993 18.4067 168.979 17.2927C167.965 16.1786 166.553 15.6216 164.743 15.6216C163.973 15.6216 163.218 15.7671 162.481 16.0581Z" fill="black"/>
            <path d="M175.916 15.9582C175.037 16.1494 174.303 16.3531 173.717 16.5693V28.9901H176.759V18.5396C176.909 18.4898 177.173 18.4316 177.55 18.3651C177.928 18.2985 178.284 18.2653 178.619 18.2653C179.205 18.2653 179.721 18.311 180.165 18.4025C180.609 18.4939 180.957 18.5812 181.208 18.6644L181.736 16.1203C181.585 16.0704 181.384 16.0164 181.133 15.9582C180.881 15.9 180.622 15.8501 180.353 15.8086C180.085 15.767 179.817 15.7337 179.549 15.7088C179.281 15.6839 179.046 15.6714 178.845 15.6714C177.772 15.6714 176.796 15.767 175.916 15.9582Z" fill="black"/>
            <path d="M184.451 16.6566C183.562 17.3467 183.118 18.2903 183.118 19.4875C183.118 20.1027 183.215 20.6223 183.407 21.0463C183.6 21.4703 183.864 21.832 184.199 22.1313C184.534 22.4306 184.932 22.6925 185.393 22.9169C185.854 23.1414 186.361 23.3534 186.914 23.5529C187.819 23.8855 188.469 24.1931 188.862 24.4758C189.256 24.7584 189.453 25.1159 189.453 25.5482C189.453 26.0138 189.269 26.3422 188.9 26.5334C188.532 26.7247 187.945 26.8203 187.14 26.8203C186.336 26.8203 185.62 26.7371 184.991 26.5708C184.363 26.4046 183.822 26.23 183.37 26.0471L182.842 28.5662C183.127 28.6825 183.621 28.8364 184.325 29.0276C185.029 29.2188 185.959 29.3144 187.115 29.3144C188.842 29.3144 190.17 28.9943 191.1 28.3542C192.03 27.714 192.495 26.7704 192.495 25.5233C192.495 24.9413 192.42 24.4425 192.269 24.0268C192.118 23.6111 191.879 23.2412 191.552 22.9169C191.226 22.5927 190.811 22.3017 190.308 22.044C189.805 21.7863 189.193 21.5244 188.473 21.2583C188.037 21.1087 187.668 20.9632 187.367 20.8219C187.065 20.6805 186.822 20.5392 186.638 20.3979C186.453 20.2565 186.323 20.1027 186.248 19.9364C186.173 19.7702 186.135 19.5789 186.135 19.3628C186.135 18.9305 186.328 18.6104 186.713 18.4025C187.099 18.1947 187.601 18.0908 188.221 18.0908C188.909 18.0908 189.512 18.1531 190.031 18.2778C190.551 18.4025 190.978 18.5397 191.313 18.6894L191.867 16.2451C191.515 16.1121 190.987 15.9749 190.283 15.8336C189.579 15.6922 188.842 15.6216 188.071 15.6216C186.546 15.6216 185.339 15.9666 184.451 16.6566Z" fill="black"/>
        </g>
        <defs>
            <clipPath id="clip0_82_848">
                <rect width="193" height="39" fill="white"/>
            </clipPath>
        </defs>
    </svg>